<?xml version="1.0" encoding="UTF-8" standalone="no"?>
<!-- Created with Inkscape (http://www.inkscape.org/) -->

<svg
   xmlns:dc="http://purl.org/dc/elements/1.1/"
   xmlns:cc="http://creativecommons.org/ns#"
   xmlns:rdf="http://www.w3.org/1999/02/22-rdf-syntax-ns#"
   xmlns:svg="http://www.w3.org/2000/svg"
   xmlns="http://www.w3.org/2000/svg"
   xmlns:sodipodi="http://sodipodi.sourceforge.net/DTD/sodipodi-0.dtd"
   xmlns:inkscape="http://www.inkscape.org/namespaces/inkscape"
   width="300"
   height="300"
   id="svg4359"
   version="1.1"
   inkscape:version="0.91 r13725"
   sodipodi:docname="moneybag.svg">
  <defs
     id="defs4361" />
  <sodipodi:namedview
     id="base"
     pagecolor="#ffffff"
     bordercolor="#666666"
     borderopacity="1.0"
     inkscape:pageopacity="0.0"
     inkscape:pageshadow="2"
     inkscape:zoom="1.4"
     inkscape:cx="210.31439"
     inkscape:cy="108.92781"
     inkscape:document-units="px"
     inkscape:current-layer="layer1"
     showgrid="false" />
  <metadata
     id="metadata4364">
    <rdf:RDF>
      <cc:Work
         rdf:about="">
        <dc:format>image/svg+xml</dc:format>
        <dc:type
           rdf:resource="http://purl.org/dc/dcmitype/StillImage" />
        <dc:title></dc:title>
      </cc:Work>
    </rdf:RDF>
  </metadata>
  <g
     inkscape:label="Layer 1"
     inkscape:groupmode="layer"
     id="layer1"
     transform="translate(0,-752.36218)">
    <g
       id="g4138"
       transform="matrix(0.43304834,0,0,0.43717221,-10.126812,652.16363)">
      <path
         sodipodi:nodetypes="ssssss"
         inkscape:connector-curvature="0"
         id="path4367"
         d="m 310,418.96257 c -25.14557,93.84453 -432.82548,445.71432 78.57143,445.71432 433.4699,0 101.43893,-384.24803 27.14285,-427.14289 -94.4158,-54.51098 125.65829,-152.95578 18.57143,-147.85715 -66.2458,3.1541 -116.32247,10.79064 -157.14285,-2.85714 C 171.22137,251.4062 325.35735,361.64814 310,418.96257 Z"
         style="fill:#6f4c30;fill-opacity:1;stroke:#000000;stroke-width:9.99990749;stroke-linecap:butt;stroke-linejoin:miter;stroke-miterlimit:4;stroke-dasharray:none;stroke-opacity:1" />
      <circle
         r="73.488594"
         cy="726.33545"
         cx="336.63333"
         transform="matrix(1.0206186,0,0,1.0206186,31.258524,-32.812104)"
         id="path4940"
         style="fill:#b8aa7a;fill-opacity:1;fill-rule:evenodd;stroke:none" />
      <path
         inkscape:connector-curvature="0"
         id="text4907"
         d="m 364.19114,644.43395 a 4.0004,4.0004 0 0 0 -0.39991,0.078 4.0004,4.0004 0 0 0 -3.08786,4.00942 l 0.18008,17.47163 c -4.3692,1.14968 -8.13725,2.89866 -11.28449,5.21643 -5.94367,4.40786 -8.96046,10.34567 -9.02886,17.8213 -0.0591,6.45634 2.05262,11.44612 6.30963,14.99538 3.25625,2.71498 8.08625,4.83514 14.45952,6.36891 l 0.3124,31.83412 c -1.92697,-0.28057 -3.84602,-0.66783 -5.79701,-1.14914 -5.00019,-1.23351 -10.11395,-3.09502 -15.31474,-5.60853 l -0.10586,11.77895 c 5.42078,1.67914 10.6482,2.92203 15.69467,3.73948 1.92016,0.30817 3.78553,0.54841 5.6222,0.72905 l 0.15975,14.32784 a 4.0066473,4.0066473 0 0 0 8.01285,-0.0844 l -0.14014,-13.88967 c 0.23947,-0.002 0.48694,0.0141 0.72476,0.01 1.57105,-0.0276 3.09999,-0.0877 4.57162,-0.18675 l 0.151,13.98279 a 4.0066473,4.0066473 0 0 0 8.01284,-0.0844 l -0.16278,-14.8938 c 5.95718,-1.10741 10.83307,-2.9792 14.63318,-5.63818 6.24023,-4.33747 9.40761,-10.59349 9.48266,-18.78657 0.0628,-6.87157 -2.19443,-12.30034 -6.74454,-16.29754 -3.97562,-3.55948 -9.92639,-6.12046 -17.85199,-7.67244 l -0.31225,-28.5936 c 1.91494,0.21931 3.83488,0.55937 5.80995,0.99032 4.32325,0.94346 8.92029,2.38011 13.7862,4.37091 l 0.11613,-11.15091 c -4.82929,-1.34969 -9.566,-2.33488 -14.18935,-2.97109 -1.88318,-0.25906 -3.74804,-0.43327 -5.60411,-0.57384 l -0.17038,-16.30868 a 4.0004,4.0004 0 0 0 -4.52509,-4.00306 4.0004,4.0004 0 0 0 -3.48776,4.08749 l 0.16163,15.96362 c -1.84117,0.0323 -3.61378,0.10899 -5.31658,0.27357 l -0.18333,-16.14986 a 4.0004,4.0004 0 0 0 -4.49405,-4.00668 z m 6.42176,29.45461 c 1.16581,-0.13386 2.40373,-0.22095 3.6808,-0.27168 l 0.28237,27.52739 -3.01542,-0.49802 c -0.81228,-0.12076 -1.58602,-0.22535 -2.33827,-0.35671 l -0.28202,-26.17458 c 0.54776,-0.0861 1.09775,-0.16046 1.67255,-0.22635 z m -9.63496,2.63311 0.24114,21.77473 c -1.68283,-0.59966 -3.01567,-1.26518 -4.00696,-1.98699 -2.48854,-1.88153 -3.72023,-4.67317 -3.686,-8.41109 0.0407,-4.45515 1.9668,-7.9427 5.76937,-10.42549 0.5323,-0.34379 1.08952,-0.65261 1.68245,-0.95116 z m 8.37243,35.39372 5.31903,0.8273 0.32557,29.78759 c -1.3954,0.13757 -2.86339,0.23476 -4.40556,0.26177 -0.30791,0.005 -0.60248,0.0117 -0.91101,0.0118 l -0.32803,-30.88846 z m 13.3627,2.62697 c 2.87386,0.91186 5.14479,2.03773 6.77863,3.36288 2.86695,2.29022 4.27941,5.5146 4.24146,9.66773 -0.0436,4.75729 -2.05324,8.45226 -6.0695,11.08971 -1.36321,0.89519 -2.93084,1.63792 -4.6779,2.24413 l -0.27269,-26.36445 z"
         style="color:#000000;font-style:normal;font-variant:normal;font-weight:normal;font-stretch:normal;font-size:123.014328px;line-height:125%;font-family:Sans;-inkscape-font-specification:Sans;text-indent:0;text-align:start;text-decoration:none;text-decoration-line:none;letter-spacing:0px;word-spacing:0px;text-transform:none;direction:ltr;block-progression:tb;writing-mode:lr-tb;baseline-shift:baseline;text-anchor:start;display:inline;overflow:visible;visibility:visible;fill:#1b7d12;fill-opacity:1;fill-rule:nonzero;stroke:none;stroke-width:1px;marker:none;enable-background:accumulate" />
      <path
         sodipodi:nodetypes="sscssssssscssssscscccssscccccccccccccssssssccscccsccscccssccccccccccsssccscccccccscccscccccsssssssccscssscssccccccc"
         inkscape:connector-curvature="0"
         id="path4998"
         d="m 439.1875,294.5 c -1.46685,0.0205 -3.02566,0.0786 -4.65625,0.15625 -37.75265,1.79748 -70.42582,5.19198 -99.4375,5.09375 0.15354,0.50299 0.36534,1.01194 0.625,1.53125 7.39754,14.7951 23.86428,8.52052 33.21875,17.875 8.02679,8.02679 -4.72119,21.35596 -6.09375,28.21875 -0.40641,2.03208 0.11348,16.44332 -1.0625,25 -2.06271,15.00869 13.35559,-20.26807 17.875,-31.4375 16.674,-41.2087 -16.86526,-31.99416 42.84375,-35 11.69793,-0.58889 -26.19494,36.6756 -15.71875,31.4375 10.72714,-5.36357 25.18545,-11.53672 38.46875,-19.1875 0.54636,-0.57906 1.13229,-1.18495 1.65625,-1.75 5.88356,-6.34495 10.27861,-11.96348 11.8125,-15.46875 0.76694,-1.75264 0.72355,-2.75541 0.65625,-3.03125 -0.0673,-0.27584 -0.0154,-0.49243 -1.34375,-1.1875 -2.3246,-1.21638 -8.57577,-2.39352 -18.84375,-2.25 z m -148.75,1.09375 c 24.95416,37.5086 49.07223,85.74007 52.0625,80.6875 16.12826,-27.25144 -31.90971,-56.79254 -20.28125,-76.84375 -11.11652,-0.50211 -21.66724,-1.67942 -31.78125,-3.84375 z m -27.71875,18.375 c 0.28601,0.37186 0.55387,0.718 0.84375,1.09375 11.63697,15.08411 26.28656,33.24444 37.1875,51.53125 8.31073,13.94162 14.74106,28.08744 15.34375,41.4375 0.0149,0.33031 0.0235,0.67067 0.0312,1 0.004,0.18658 -0.002,0.37625 0,0.5625 0.006,0.51757 0.0126,1.01631 0,1.53125 -0.01,0.38543 -0.0112,0.77232 -0.0312,1.15625 -0.007,0.13356 -0.0231,0.27288 -0.0312,0.40625 -0.025,0.40165 -0.0569,0.78758 -0.0937,1.1875 -0.0104,0.11458 -0.0199,0.22931 -0.0312,0.34375 -0.0426,0.42297 -0.1,0.8603 -0.15625,1.28125 -0.01,0.0741 -0.0209,0.14473 -0.0312,0.21875 -0.0642,0.46003 -0.13787,0.91748 -0.21875,1.375 -0.0127,0.072 -0.0181,0.14683 -0.0312,0.21875 -0.0836,0.45769 -0.18045,0.91993 -0.28125,1.375 -0.004,0.0201 0.005,0.0424 0,0.0625 -0.11309,0.50657 -0.24017,0.9968 -0.375,1.5 -3.47921,12.98459 -12.87153,28.83621 -25.53125,47.59375 -12.65972,18.75754 -28.66588,40.24393 -45.53125,63.3125 -33.73075,46.13713 -70.83228,98.7227 -91.0625,147.75 -10.11511,24.51365 -15.98682,48.09186 -15.375,69.34375 0.61182,21.25189 7.45312,40.15676 23.25,56.5 10.8715,11.24751 26.18574,21.26766 46.78125,29.5625 0.009,0.004 0.0224,-0.004 0.0312,0 1.67765,0.6754 3.40807,1.34767 5.15625,2 0.44445,0.16585 0.8947,0.33566 1.34375,0.5 1.64762,0.60288 3.3213,1.19899 5.03125,1.78125 0.0412,0.014 0.0838,0.0172 0.125,0.0312 2.03727,0.69253 4.12323,1.3686 6.25,2.03125 2.03406,0.63376 4.10171,1.26921 6.21875,1.875 0.11558,0.0331 0.22792,0.0608 0.34375,0.0937 1.99356,0.56784 4.02593,1.11367 6.09375,1.65625 0.41494,0.10888 0.83205,0.20465 1.25,0.3125 1.95901,0.50546 3.94311,1.01741 5.96875,1.5 0.4863,0.11591 0.97858,0.22917 1.46875,0.34375 2.13937,0.49987 4.31768,0.99459 6.53125,1.46875 2.21972,0.47548 4.4548,0.92587 6.75,1.375 0.0928,0.0182 0.18833,0.0444 0.28125,0.0625 0.4866,0.0949 0.97874,0.18752 1.46875,0.28125 1.87918,0.35928 3.78914,0.72098 5.71875,1.0625 0.48381,0.0857 0.9505,0.16545 1.4375,0.25 0.52383,0.0909 1.03497,0.1604 1.5625,0.25 0.39169,0.0666 0.79377,0.12164 1.1875,0.1875 1.40416,0.2347 2.81974,0.49332 4.25,0.71875 0.42167,0.0665 0.82605,0.12181 1.25,0.1875 2.59555,0.40207 5.22471,0.78491 7.90625,1.15625 0.39507,0.0547 0.79055,0.10219 1.1875,0.15625 0.29388,0.04 0.58008,0.0854 0.875,0.125 2.44937,0.32916 4.94782,0.63413 7.46875,0.9375 2.99927,0.36094 6.05452,0.70747 9.15625,1.03125 2.95927,0.30891 5.97761,0.6318 9.03125,0.90625 0.33171,0.0298 0.66717,0.0331 1,0.0625 5.47011,0.48324 11.06761,0.9108 16.84375,1.28125 0.67084,0.043 1.35624,0.0835 2.03125,0.125 0.37354,0.023 0.75018,0.04 1.125,0.0625 2.99077,0.17935 6.02097,0.35119 9.09375,0.5 0.46812,0.0227 0.93621,0.0405 1.40625,0.0625 2.58549,0.12075 5.20004,0.2448 7.84375,0.34375 1.66477,0.0624 3.34324,0.13385 5.03125,0.1875 1.53754,0.0488 3.09933,0.0835 4.65625,0.125 1.2143,0.0324 2.39886,0.0658 3.625,0.0937 2.58685,0.0589 5.17264,0.0862 7.8125,0.125 2.04851,0.0303 4.10684,0.0444 6.1875,0.0625 0.48096,0.004 0.95481,0.0277 1.4375,0.0312 2.5741,0.0188 5.12665,0.0312 7.75,0.0312 2.44687,0 4.85411,-0.006 7.25,-0.0312 0.89088,-0.009 1.80353,-0.0187 2.6875,-0.0312 1.05296,-0.0154 2.11311,-0.0423 3.15625,-0.0625 0.42825,-0.008 0.85465,-0.0223 1.28125,-0.0312 0.50484,-0.0108 0.99746,-0.0194 1.5,-0.0312 1.81027,-0.042 3.62567,-0.0998 5.40625,-0.15625 2.316,-0.0734 4.60886,-0.15256 6.875,-0.25 89.89458,-3.8654 140.72625,-26.54961 165.46875,-58.21875 27.2176,-34.83714 24.43173,-82.05395 5.6875,-131.9375 -18.74423,-49.88355 -53.41045,-101.61513 -87.96875,-143.375 -34.5583,-41.75987 -69.51625,-73.77368 -86.6875,-83.6875 -12.5616,-7.25244 -20.4104,-16.34817 -24,-26.53125 -0.641,-1.81841 -1.1535,-3.67131 -1.53125,-5.53125 -0.23106,-0.0899 -0.45667,-0.18623 -0.6875,-0.28125 -1.08668,-6.80271 -0.15927,-13.73812 2.09375,-20.40625 2.54383,-7.5288 6.70798,-14.8967 11.75,-22.03125 -15.66823,12.68246 -28.04995,28.28495 -20.46875,45.625 2.00167,4.5783 2.08907,16.15014 14.25,27.71875 201.36844,191.56039 265.99043,376.94617 40.375,403.34375 -33.81337,3.95625 -75.27526,5.00797 -122.46875,2.1875 -34.77827,-3.84064 -67.83801,-10.3524 -91.3127,-28.4687 -142.746353,-110.16274 40.35818,-261.12166 91.4375,-360.625 5.37473,-10.47006 10.51296,-25.71528 8.375,-37.875 0.0101,-0.54033 0.019,-1.14936 0.0312,-1.625 C 332.0333,378.87651 291.62124,344.18776 262.7187,313.96875 Z M 171.4375,828.0625 c 1.80794,0.7337 3.60709,1.51803 5.40625,2.3125 -0.97032,-0.60158 -1.90454,-1.22999 -2.84375,-1.84375 -0.85582,-0.15993 -1.7048,-0.30661 -2.5625,-0.46875 z"
         style="fill:#48311f;fill-opacity:1;stroke:none" />
      <path
         sodipodi:nodetypes="cssssssc"
         inkscape:connector-curvature="0"
         id="path4879"
         d="m 296.42857,587.36218 c 152.80999,-65.83039 18.35834,-172.60285 5.06563,-175.38868 -42.24395,-8.8533 200.35623,0.38868 33.5058,0.38868 -20.58084,0 -10.93801,1.18347 -31.12399,1.18347 -30.53073,0 78.14873,-48.79878 88.98113,-5.46918 15.07244,60.28974 -184.53312,-25.26996 -17.14285,-10.71429 12.778,1.11113 32.36981,-2.95927 25.46047,7.65536 -57.26226,87.97046 -120.59081,85.06637 -4.38905,117.34464"
         style="fill:none;stroke:#000000;stroke-width:4.99995375;stroke-linecap:butt;stroke-linejoin:miter;stroke-miterlimit:4;stroke-dasharray:none;stroke-opacity:1" />
    </g>
  </g>
</svg>
